<?xml version="1.0" encoding="UTF-8"?>
<svg id="Layer_1" data-name="Layer 1" xmlns="http://www.w3.org/2000/svg" viewBox="0 0 418.6 480.01">
  <defs>
    <style>
      .cls-1 {
        fill: #000;
        stroke-width: 0px;
      }
    </style>
  </defs>
  <path class="cls-1" d="M415.13,417.5l-79.96-57.32c48.73-51.16,46.77-132.14-4.39-180.88-23.81-22.68-55.43-35.32-88.31-35.3-4.1,0-8.14.2-12.14.58l-27.4-82.62,15.1-4.98c4.19-1.38,6.47-5.9,5.09-10.1l-10.01-30.39c-4.15-12.59-17.72-19.43-30.31-15.28l-15.2,5.01c-12.58,4.16-19.41,17.72-15.28,30.31l10.02,30.39c1.38,4.2,5.9,6.48,10.1,5.09l15.29-5.04,26.58,80.16c-36.56,8.33-67.66,32.21-85.14,65.38l-63.18-45.29,9.19-12.64c2.6-3.57,1.81-8.58-1.77-11.18l-25.89-18.82c-10.73-7.78-25.72-5.41-33.53,5.3l-9.41,12.94c-7.79,10.72-5.42,25.73,5.3,33.52,0,0,0,0,0,0l25.88,18.82c3.57,2.6,8.58,1.81,11.17-1.77,0,0,0,0,0,0l9.63-13.24,65.91,47.25c-24.63,66.25,9.1,139.93,75.36,164.57,31.38,11.67,66.07,10.58,96.66-3.04l28.38,85.58c1.39,4.19,5.92,6.47,10.11,5.08s6.47-5.92,5.08-10.11l-29.21-88.08c5-3.05,9.78-6.43,14.32-10.13l82.63,59.23c3.54,2.65,8.55,1.92,11.2-1.62,2.65-3.54,1.92-8.55-1.62-11.2-.08-.06-.17-.12-.26-.18h0ZM167.52,31.52c-1.38-4.19.9-8.71,5.09-10.1l15.2-5.01c4.2-1.38,8.72.9,10.1,5.09l7.51,22.79-30.39,10.02-7.51-22.79ZM38.71,177.53l-19.41-14.11c-3.57-2.6-4.36-7.6-1.76-11.18l9.41-12.94c2.6-3.57,7.6-4.36,11.18-1.77l19.41,14.11-18.82,25.88ZM298.46,368.97c-.62-.21-1.25-.42-1.85-.63-26.03-9.16-49.66-24.05-69.15-43.58-34.28-34.22-53.48-80.7-53.36-129.13,0-4.21.15-8.44.43-12.62,5.63-4.31,11.66-8.08,18.01-11.26-1.14,7.91-1.71,15.89-1.72,23.87-.04,21.19,4,42.19,11.9,61.85,18.71,46.55,57.41,82.18,105.35,97,2.53.78,5.1,1.48,7.68,2.14-5.36,4.65-11.15,8.78-17.3,12.34ZM351.19,245.06c-21.88-3.92-44.28-3.84-66.13.25,1.38-5.99,3.3-11.85,5.73-17.5,18.02-3.03,36.42-3.12,54.47-.26,2.46,5.66,4.44,11.52,5.93,17.52ZM328.89,343.18c-5.15-.98-10.25-2.22-15.27-3.74-4.49-4.63-8.62-9.6-12.33-14.88,13.23-1.37,26.58-1.18,39.76.57-3.46,6.4-7.54,12.44-12.17,18.05h0ZM292.4,309.55c-2.44-4.97-4.46-10.14-6.05-15.45,21.76-4.26,44.15-4.2,65.89.18-1.08,5.32-2.55,10.56-4.39,15.66-18.36-2.91-37.05-3.04-55.45-.4ZM318.83,274.91c-12,0-23.97,1.18-35.74,3.52-.41-3.46-.62-6.95-.62-10.43,0-1.96.06-3.92.17-5.87,23.5-5.19,47.84-5.26,71.37-.21.3,3.32.46,6.69.46,10.09,0,2.14-.07,4.26-.18,6.37-11.68-2.3-23.55-3.46-35.45-3.46ZM266.47,268c0,20.25,5.92,40.32,17.02,58.58-9.53-5.36-18.44-11.73-26.59-19.02-15.53-48.27-2.45-101.17,33.79-136.64,5.26,2.52,10.32,5.45,15.12,8.76-25.12,23.24-39.34,54.9-39.34,88.32ZM234.47,266.55c0,5.77.33,11.53.99,17.26-6.9-9.49-12.66-19.76-17.18-30.59,2.61-33.93,15.66-66.22,37.36-92.43,6.37.75,12.67,2.05,18.82,3.88-25.67,27.72-39.96,64.1-39.99,101.88ZM208.4,217.42c-2.53-17.5-1.99-35.31,1.61-52.62,8.42-2.55,17.12-4.1,25.9-4.61-12.49,17.29-21.8,36.67-27.51,57.22h0ZM335.86,210.26c-11.82-1.08-23.71-1.04-35.52.14,5.16-7.59,11.25-14.51,18.12-20.59,6.59,6.1,12.43,12.96,17.39,20.44h0ZM158.14,198.38c.57,51.71,21.39,101.14,57.99,137.68,17.8,17.81,38.8,32.11,61.89,42.15-8.63,2.89-17.57,4.72-26.64,5.43-60.13-33.79-100.47-94.31-108.52-162.81,4.17-8.07,9.3-15.61,15.28-22.45ZM130.47,272c0-6.75.61-13.49,1.82-20.14,12.99,51.88,43.53,97.67,86.43,129.6-51.47-11.24-88.18-56.78-88.25-109.46Z"/>
</svg>